HIERARCHY
ROOT Pelvis
{
	OFFSET 0.000000 0.000000 0.000000
	CHANNELS 6 Xposition Yposition Zposition Zrotation Yrotation Xrotation 
	JOINT Left_hip
	{
		OFFSET 0.076090 -0.089427 -0.010735
		CHANNELS 3 Zrotation Yrotation Xrotation
		JOINT Left_knee
		{
			OFFSET 0.030200 -0.359518 -0.003501
			CHANNELS 3 Zrotation Yrotation Xrotation
			JOINT Left_ankle
			{
				OFFSET -0.011005 -0.371022 -0.045888
				CHANNELS 3 Zrotation Yrotation Xrotation
				JOINT Left_foot
				{
					OFFSET 0.023930 -0.052103 0.111084
					CHANNELS 3 Zrotation Yrotation Xrotation
					End Site
					{
						OFFSET 0.000000 0.000000 0.000000
					}
				}
			}
		}
	}
	JOINT Right_hip
	{
		OFFSET -0.073836 -0.088112 -0.007709
		CHANNELS 3 Zrotation Yrotation Xrotation
		JOINT Right_knee
		{
			OFFSET -0.035715 -0.367809 -0.006536
			CHANNELS 3 Zrotation Yrotation Xrotation
			JOINT Right_ankle
			{
				OFFSET 0.013718 -0.371958 -0.043815
				CHANNELS 3 Zrotation Yrotation Xrotation
				JOINT Right_foot
				{
					OFFSET -0.021936 -0.046387 0.114542
					CHANNELS 3 Zrotation Yrotation Xrotation
					End Site
					{
						OFFSET 0.000000 0.000000 0.000000
					}
				}
			}
		}
	}
	JOINT Spine1
	{
		OFFSET -0.001865 0.102064 -0.019455
		CHANNELS 3 Zrotation Yrotation Xrotation
		JOINT Spine2
		{
			OFFSET 0.003082 0.129260 -0.001938
			CHANNELS 3 Zrotation Yrotation Xrotation
			JOINT Spine3
			{
				OFFSET 0.001104 0.048093 0.026561
				CHANNELS 3 Zrotation Yrotation Xrotation
				JOINT Neck
				{
					OFFSET -0.002010 0.204222 -0.047183
					CHANNELS 3 Zrotation Yrotation Xrotation
					JOINT Head
					{
						OFFSET 0.005050 0.063649 0.048489
						CHANNELS 3 Zrotation Yrotation Xrotation
						End Site
						{
							OFFSET 0.000000 0.000000 0.000000
						}
					}
				}
				JOINT Left_collar
				{
					OFFSET 0.072979 0.114065 -0.031633
					CHANNELS 3 Zrotation Yrotation Xrotation
					JOINT Left_shoulder
					{
						OFFSET 0.083419 0.032092 -0.006530
						CHANNELS 3 Zrotation Yrotation Xrotation
						JOINT Left_elbow
						{
							OFFSET 0.239393 -0.012014 -0.025060
							CHANNELS 3 Zrotation Yrotation Xrotation
							JOINT Left_wrist
							{
								OFFSET 0.227297 0.008116 0.000384
								CHANNELS 3 Zrotation Yrotation Xrotation
								JOINT Left_palm
								{
									OFFSET 0.074607 -0.009248 -0.012277
									CHANNELS 3 Zrotation Yrotation Xrotation
									End Site
									{
										OFFSET 0.000000 0.000000 0.000000
									}
								}
							}
						}
					}
				}
				JOINT Right_collar
				{
					OFFSET -0.074980 0.111880 -0.037894
					CHANNELS 3 Zrotation Yrotation Xrotation
					JOINT Right_shoulder
					{
						OFFSET -0.087565 0.034353 -0.009323
						CHANNELS 3 Zrotation Yrotation Xrotation
						JOINT Right_elbow
						{
							OFFSET -0.236838 -0.013719 -0.019794
							CHANNELS 3 Zrotation Yrotation Xrotation
							JOINT Right_wrist
							{
								OFFSET -0.235053 0.006433 -0.003853
								CHANNELS 3 Zrotation Yrotation Xrotation
								JOINT Right_palm
								{
									OFFSET -0.075499 -0.006894 -0.009792
									CHANNELS 3 Zrotation Yrotation Xrotation
									End Site
									{
										OFFSET 0.000000 0.000000 0.000000
									}
								}
							}
						}
					}
				}
			}
		}
	}
}
MOTION
Frames: 6
Frame Time: 0.100000
0.000000 0.000000 0.000000 173.662980 33.207202 -20.729605 0.315235 -0.069493 6.295829 -1.777179 -5.306969 4.297793 0.907419 8.167868 -11.297087 -0.121383 7.575439 -3.326010 -0.270617 -0.949908 13.229444 2.781169 5.137345 -6.004370 8.719012 -6.092590 -7.801334 -8.399345 8.132612 6.427558 1.467787 1.966125 5.062424 2.083329 -4.254843 1.681846 0.180288 -1.565752 0.365522 0.974055 -3.360125 -4.209825 -4.559465 -12.375119 19.840193 -29.031431 -15.823405 3.439700 -50.957038 -26.358629 14.766057 13.602998 -30.970878 -0.345318 5.919080 -9.138413 4.480263 -8.969275 -2.835629 -4.399029 30.804037 14.923341 3.845004 43.015459 10.180100 12.915045 -10.085382 19.641348 -8.973757 -4.388665 5.280523 -2.881264 10.549045 6.341507 -3.471278 
-0.006869 0.003398 -0.004908 172.196077 34.717603 -22.407693 1.850207 -0.140063 2.500138 -0.445277 -2.107815 15.441624 1.232875 11.293667 -12.596396 0.344119 6.636605 -3.798029 0.016261 -1.524900 14.295907 2.955514 5.469716 -5.786602 7.567920 -6.556674 -8.252458 -7.893489 6.105217 6.240038 2.005077 2.232037 6.433286 2.925328 -5.005555 1.776857 0.755945 -2.036884 0.957432 0.331014 -4.809906 -5.029482 -3.604016 -12.216484 17.179351 -28.787786 -14.631157 4.422420 -51.853115 -24.164934 14.761740 9.171550 -28.030652 3.840665 0.492164 -8.041391 2.073287 -8.310806 -2.733035 -4.058232 30.501662 12.958219 4.120168 42.720021 7.401178 11.389783 -8.893301 14.578915 -9.131242 -1.242460 3.866816 -2.929787 10.212568 6.324845 -4.109214 
-0.022059 0.004084 -0.004653 171.764276 34.733726 -21.662416 3.621149 0.391586 5.472480 -1.683292 -6.361724 9.734313 -1.668661 9.535153 -11.528781 2.614653 4.970538 -3.703864 -0.472499 -1.423289 14.073413 2.861253 6.094729 -6.378570 8.169753 -7.034136 -8.598351 -8.981089 5.521043 5.829224 2.056313 1.747956 4.992059 3.229186 -4.812220 2.240555 0.984663 -2.306945 1.021595 1.315617 -4.323886 -5.162380 -2.919468 -11.715437 15.154930 -30.464807 -10.174013 5.121880 -53.007736 -18.166686 14.214494 4.876469 -18.124953 7.897624 -1.982961 -6.745672 4.701397 -9.003598 -3.377102 -7.654788 31.278237 8.996688 4.215394 42.697833 3.894378 10.351108 -7.040335 8.576862 -7.719454 0.374684 2.975192 -1.684742 10.601030 6.247090 -5.028275 
-0.039071 0.003032 -0.008501 172.248176 34.486579 -18.789893 2.862298 2.470914 7.171795 -2.315250 -7.212249 1.774390 1.214116 8.143174 -8.326731 -0.034237 8.594284 -4.542632 -1.259079 -0.924236 10.444436 2.271417 7.882890 -4.460664 4.985970 -10.126494 -9.218091 -6.652470 7.628535 6.043440 2.273103 0.082013 2.307168 2.406595 -4.102863 2.278426 0.322849 -3.388993 1.961445 3.371051 -3.517870 -4.915012 -3.053559 -9.766931 9.695588 -31.847155 -2.177990 3.932450 -51.749161 -11.277895 8.919929 2.973064 -7.488976 9.606839 -8.538797 1.373122 3.702238 -10.529113 -5.182890 -10.807746 31.273580 2.898406 2.475828 45.552391 2.697222 11.319149 -7.820443 5.210137 -7.153193 5.463348 -3.098809 1.299108 13.187852 8.118546 -6.653149 
-0.052108 0.003544 -0.015499 171.919925 33.869559 -18.387785 2.840927 3.224168 8.490865 -2.893048 -8.003979 -1.549422 0.030940 8.453941 -7.656716 1.876945 7.649028 -4.409404 -1.511411 -0.802294 8.936916 1.876951 7.999128 -2.733004 6.276548 -10.487818 -9.294578 -8.544807 7.126072 3.876494 2.050477 -0.230557 2.353991 2.648305 -3.667079 2.284823 0.734816 -3.530884 2.827230 3.004545 -2.733170 -7.039870 -3.097102 -9.346876 6.588615 -30.430271 2.522320 4.168511 -52.163126 -5.479736 7.358629 2.642499 -0.799868 10.157218 -9.234483 1.711101 3.304735 -10.492468 -5.092902 -12.896476 30.956155 -0.333397 1.970187 47.159686 0.461001 11.197899 -7.557803 4.881002 -7.083689 5.527869 -2.776225 -0.468011 13.333360 7.754049 -7.061873 
-0.061030 0.004813 -0.025412 171.813840 32.143084 -17.637459 3.156899 4.007454 9.524311 -3.677230 -7.990335 -5.141604 -1.172841 8.744719 -6.832973 3.448323 6.927292 -3.840747 -1.792083 -0.474640 6.773803 1.688922 8.240268 -1.220325 7.796592 -10.072534 -8.959707 -10.060557 7.059698 1.998167 1.914218 -0.256493 2.896567 2.776278 -2.571451 2.249597 1.149343 -2.900713 3.084412 2.645951 -1.038589 -10.069700 -3.227596 -8.592935 4.042478 -29.230896 5.861589 3.958852 -51.721568 -1.962852 5.938604 3.092014 0.161778 8.281357 -8.441979 0.508856 1.394634 -10.008743 -4.927747 -13.132507 31.069384 -1.295329 1.642386 47.595401 0.705123 11.370059 -6.749253 4.387616 -7.398793 5.246240 -2.465115 -1.061016 13.109817 7.308834 -7.163654 
